Coordinates
version=1
nRows=21
nColumns=33
inDegrees=yes

Units are S.I. units (second, meters, Newtons, ...)
Angles are in degrees.

endheader
time	ground_thorax_rot_x	ground_thorax_rot_y	ground_thorax_rot_z	ground_thorax_tx	ground_thorax_ty	ground_thorax_tz	clav_prot_r	clav_elev_r	scapula_abduction_r	scapula_elevation_r	scapula_upward_rot_r	scapula_winging_r	shoulder_elv_r	plane_of_elev_r	axial_rot_r	elbow_flexion_r	pro_sup_r	wrist_flex_r	wrist_dev_r	clav_prot_l	clav_elev_l	scapula_abduction_l	scapula_elevation_l	scapula_upward_rot_l	scapula_winging_l	shoulder_elv_l	plane_of_elev_l	axial_rot_l	elbow_flexion_l	pro_sup_l	wrist_flex_l	wrist_dev_l
      3.80000000	     26.78113052	     30.00979622	     44.68863099	    -46.55158461	    841.25114442	    -39.89576948	     13.48420545	     34.73722603	     30.65446649	     45.00000000	    -45.00000000	   2072.24364107	   1692.38537098	    157.08721536	     11.39293890	    358.89738278	    164.02676702	     14.29444520	     15.97084197	     -7.29660008	    -45.00000000	    -39.58414817	     45.00000000	    -45.00000000	   6222.29677049	  -5681.41460384	     27.50809605	     38.50478590	    709.71117347	     42.64750848	     14.88559435	    -18.87798589
      3.81000000	     26.52994619	     30.20203600	     45.22786543	    -42.88112093	    838.89079153	    -39.65288154	     13.67252429	     34.81488375	     30.68526664	     45.00000000	    -45.00000000	   2072.54047191	   1692.26486767	    157.11887524	     11.15968492	    358.95755162	    164.72304032	     14.19167819	     16.01338673	     -7.72323830	    -45.00000000	    -39.36763101	     45.00000000	    -45.00000000	   6222.02086796	  -5681.57555400	     27.39036877	     38.59557048	    709.68918657	     42.84597736	     14.76222774	    -18.55469486
      3.82000000	     26.21643908	     30.42807509	     45.84326250	    -39.15370230	    836.39910497	    -39.39232374	     13.59575120	     34.83619360	     30.65864770	     45.00000000	    -45.00000000	   2072.78428869	   1692.12121346	    157.13251233	     11.04315010	    358.99381752	    165.37778051	     14.12921927	     15.97066365	     -7.89788012	    -45.00000000	    -39.16291131	     45.00000000	    -45.00000000	   6221.85151257	  -5681.77837194	     27.36343072	     38.41991447	    709.65004914	     43.05925691	     14.70515345	    -18.29905848
      3.83000000	     25.86975646	     30.67358172	     46.50039289	    -35.37791415	    833.79191333	    -39.11359858	     13.55054647	     34.85816483	     30.61617009	     45.00000000	    -45.00000000	   2073.07443861	   1692.00731507	    157.21776593	     10.99666647	    359.04624701	    165.99662032	     14.03806783	     15.92250054	     -8.14763945	    -45.00000000	    -38.94915256	     45.00000000	    -45.00000000	   6221.65054330	  -5681.98301843	     27.28472310	     38.19827196	    709.63366412	     43.28817316	     14.61511715	    -18.02475370
      3.84000000	     25.49705485	     30.90405051	     47.19830624	    -31.55875300	    831.08114105	    -38.81551956	     13.31862121	     34.91697998	     30.54131618	     45.00000000	    -45.00000000	   2073.47488908	   1691.95516968	    157.41973539	     11.18140121	    359.03489128	    166.55138237	     13.93484430	     15.87868569	     -8.30886725	    -45.00000000	    -38.73138069	     45.00000000	    -45.00000000	   6221.49212196	  -5682.22776354	     27.15800998	     37.76124640	    709.70927450	     43.50757093	     14.54760712	    -17.80984182
      3.85000000	     25.36283526	     31.07690259	     47.45246770	    -27.70610552	    828.27873845	    -38.49871658	     13.20014011	     35.12870291	     30.19965769	     45.00000000	    -45.00000000	   2073.91519884	   1692.11702508	    157.53384925	     11.58354107	    358.63408134	    167.08316822	     13.82347556	     16.07803453	     -8.55074832	    -45.00000000	    -38.54142655	     45.00000000	    -45.00000000	   6221.13465740	  -5682.62855549	     27.03927631	     37.14522306	    709.87925264	     43.72333591	     14.46174425	    -17.64166443
      3.86000000	     24.91985666	     31.30850825	     48.34716753	    -23.83529413	    825.39822581	    -38.16522688	     13.34877141	     35.01322025	     30.38171694	     45.00000000	    -45.00000000	   2074.02687638	   1691.68214823	    157.50198574	     11.17010315	    359.09838773	    167.44447134	     13.65431956	     15.89221799	     -8.83183107	    -45.00000000	    -38.24531016	     45.00000000	    -45.00000000	   6221.14359784	  -5682.77715743	     26.98534300	     36.84110721	    709.71230009	     44.02248165	     14.34015820	    -17.34850389
      3.87000000	     24.67375491	     31.47509688	     48.89633900	    -19.94871058	    822.44206318	    -37.82006820	     13.39299670	     35.20803762	     30.41229022	     45.00000000	    -45.00000000	   2074.26062395	   1691.51879882	    157.60859691	     11.52536796	    359.13787864	    167.92082779	     13.59524126	     15.72641281	     -9.37613264	    -45.00000000	    -37.84311309	     45.00000000	    -45.00000000	   6220.89378157	  -5682.93585062	     26.79319097	     36.52481235	    709.71225320	     44.26831501	     14.20374381	    -17.08716395
      3.88000000	     24.33579932	     31.70783349	     49.50393726	    -16.08185572	    819.43810684	    -37.47025370	     13.37565696	     35.23923250	     30.22790328	     45.00000000	    -45.00000000	   2074.58146021	   1691.42105929	    157.65896538	     11.54956539	    359.21471637	    168.29530779	     13.45744301	     15.67508841	     -9.65130505	    -45.00000000	    -37.56854202	     45.00000000	    -45.00000000	   6220.69028100	  -5683.22258647	     26.66054544	     35.85160428	    709.72544566	     44.50686142	     14.05743985	    -16.84632317
      3.89000000	     24.05568325	     31.89400875	     50.02818578	    -12.22897754	    816.38402110	    -37.11994225	     13.37484077	     35.29875584	     30.08349927	     45.00000000	    -45.00000000	   2074.85053143	   1691.26939562	    157.68267287	     11.71680138	    359.24642204	    168.65907387	     13.35707994	     15.61462574	     -9.98902689	    -45.00000000	    -37.28871623	     45.00000000	    -45.00000000	   6220.51196908	  -5683.47885347	     26.51444741	     35.21404991	    709.69882434	     44.73708641	     13.92157350	    -16.61892889
      3.90000000	     23.74417521	     32.12921779	     50.62599262	     -8.41010511	    813.29912942	    -36.77102400	     13.27634481	     35.38893893	     29.95171619	     45.00000000	    -45.00000000	   2075.17484336	   1691.17175478	    157.82453780	     12.01164447	    359.33073378	    168.99920938	     13.23744861	     15.51358581	    -10.29051512	    -45.00000000	    -36.95895968	     45.00000000	    -45.00000000	   6220.35266322	  -5683.77167520	     26.30843252	     34.39209921	    709.74290090	     44.92147080	     13.78208105	    -16.42057222
      3.91000000	     23.45829380	     32.31985508	     51.17526317	     -4.63331699	    810.19486731	    -36.42571831	     13.20394035	     35.47710283	     29.75456999	     45.00000000	    -45.00000000	   2075.54832301	   1691.10250338	    157.92489638	     12.34293682	    359.38598449	    169.30439710	     13.09857969	     15.41825073	    -10.59970686	    -45.00000000	    -36.65201433	     45.00000000	    -45.00000000	   6220.18851856	  -5684.05357851	     26.06169621	     33.41734376	    709.77770250	     45.09286511	     13.62738574	    -16.21465959
      3.92000000	     23.15774552	     32.54140489	     51.70449727	     -0.91680727	    807.09248391	    -36.08489038	     13.19274622	     35.51955989	     29.55614710	     45.00000000	    -45.00000000	   2075.84813022	   1690.96899664	    158.01505503	     12.62835364	    359.47369124	    169.56237706	     12.95876313	     15.29361738	    -10.93322726	    -45.00000000	    -36.33550109	     45.00000000	    -45.00000000	   6220.04447242	  -5684.32363172	     25.85465125	     32.42639418	    709.76100939	     45.23727894	     13.47750052	    -15.99367372
      3.93000000	     22.89395658	     32.76405200	     52.20512480	      2.72442803	    804.00997770	    -35.75235229	     13.14840893	     35.57933869	     29.35202378	     45.00000000	    -45.00000000	   2076.15391262	   1690.88419248	    158.11204051	     13.02858179	    359.55138904	    169.79484511	     12.82027818	     15.14596746	    -11.24533980	    -45.00000000	    -36.02001795	     45.00000000	    -45.00000000	   6219.91013565	  -5684.59197471	     25.62590067	     31.44344363	    709.76938963	     45.33512895	     13.33210074	    -15.78852607
      3.94000000	     22.62781636	     32.99348209	     52.71368495	      6.26933234	    800.97136388	    -35.43238293	     13.12457609	     35.62462059	     29.16213804	     45.00000000	    -45.00000000	   2076.43024522	   1690.78234006	    158.21739463	     13.44541946	    359.63778240	    169.96865324	     12.68773409	     14.98688276	    -11.56099385	    -45.00000000	    -35.69315938	     45.00000000	    -45.00000000	   6219.80287562	  -5684.86518468	     25.38537163	     30.39062168	    709.75273599	     45.39980248	     13.20230486	    -15.58788029
      3.95000000	     22.38561518	     33.21180337	     53.15932367	      9.69254828	    798.00434301	    -35.13275360	     13.09394044	     35.68043692	     28.96257703	     45.00000000	    -45.00000000	   2076.70026221	   1690.68548254	    158.33746247	     13.97422459	    359.74849244	    170.08784801	     12.56025560	     14.81869591	    -11.86507456	    -45.00000000	    -35.37886651	     45.00000000	    -45.00000000	   6219.70014005	  -5685.10591097	     25.16369416	     29.33998031	    709.75016581	     45.42134919	     13.08063842	    -15.39868765
      3.96000000	     22.15097952	     33.43864231	     53.59007621	     12.96773129	    795.13788944	    -34.85956126	     13.07847964	     35.71324998	     28.75342888	     45.00000000	    -45.00000000	   2076.95160718	   1690.60282560	    158.45942760	     14.49282330	    359.85916955	    170.12181217	     12.44699420	     14.65900372	    -12.15154260	    -45.00000000	    -35.07888638	     45.00000000	    -45.00000000	   6219.61870847	  -5685.34755999	     24.94459979	     28.27248995	    709.73939092	     45.40145279	     12.97137184	    -15.22144237
      3.97000000	     21.95768972	     33.63554014	     53.97550768	     16.06445100	    792.40267294	    -34.61769086	     13.00566924	     35.77441324	     28.53769084	     45.00000000	    -45.00000000	   2077.22911820	   1690.58608570	    158.60771289	     15.15287374	    359.91555084	    170.09110221	     12.36922747	     14.49556923	    -12.42313120	    -45.00000000	    -34.79620552	     45.00000000	    -45.00000000	   6219.53608791	  -5685.56918811	     24.67344856	     27.19253050	    709.74658039	     45.34178585	     12.86318454	    -15.06098519
      3.98000000	     21.77315629	     33.84778953	     54.28321797	     18.95232250	    789.82867864	    -34.40995588	     13.04492975	     35.79574873	     28.33795724	     45.00000000	    -45.00000000	   2077.40112725	   1690.47951581	    158.70360049	     15.73636590	    360.05917303	    169.94119777	     12.28402631	     14.33315453	    -12.68330111	    -45.00000000	    -34.54274132	     45.00000000	    -45.00000000	   6219.50305255	  -5685.77481282	     24.52834278	     26.23922780	    709.70832511	     45.23935238	     12.77425275	    -14.90218403
      3.99000000	     21.63225861	     34.00433608	     54.53861772	     21.60358698	    787.44173168	    -34.23849228	     13.01287465	     35.83181395	     28.12479991	     45.00000000	    -45.00000000	   2077.64447774	   1690.46065740	    158.80893712	     16.37606926	    360.17356838	    169.72949476	     12.20949890	     14.17284895	    -12.90988182	    -45.00000000	    -34.31482136	     45.00000000	    -45.00000000	   6219.44173324	  -5685.94326699	     24.30845516	     25.28678502	    709.69066467	     45.10762718	     12.68163643	    -14.76472613
      4.00000000	     21.55860154	     34.11400432	     54.73770797	     23.99465235	    785.26234959	    -34.10514153	     12.77036276	     36.01356292	     27.97452417	     45.00000000	    -45.00000000	   2077.95357359	   1690.57835736	    159.04635269	     17.38871697	    360.12971344	    169.52894595	     12.23944317	     13.94628341	    -13.13315618	    -45.00000000	    -34.06151852	     45.00000000	    -45.00000000	   6219.29652674	  -5686.05780895	     23.98445819	     24.41766853	    709.73665395	     44.95260140	     12.55052227	    -14.64534469
